<?xml version="1.0" encoding="UTF-8"?>
<svg id="svg815" xmlns="http://www.w3.org/2000/svg" xmlns:svg="http://www.w3.org/2000/svg" xmlns:sodipodi="http://sodipodi.sourceforge.net/DTD/sodipodi-0.dtd" xmlns:rdf="http://www.w3.org/1999/02/22-rdf-syntax-ns#" xmlns:osb="http://www.openswatchbook.org/uri/2009/osb" xmlns:inkscape="http://www.inkscape.org/namespaces/inkscape" xmlns:dc="http://purl.org/dc/elements/1.1/" xmlns:cc="http://creativecommons.org/ns#" version="1.1" viewBox="0 0 90 90">
  <!-- Generator: Adobe Illustrator 29.0.1, SVG Export Plug-In . SVG Version: 2.1.0 Build 192)  -->
  <defs>
    <style>
      .st0 {
        fill: #ffd421;
      }
    </style>
  </defs>
  <path id="OBJET_LOGO" class="st0" d="M45,8.3s0,0,0,0c-1.7.1-2.6,28.7-3.5,37.8-.7,6.5-1.1,13.3-3.8,15.5h0c-.6.8-1.6,1.3-2.7,1.7-1.1.4-2.3.6-3.4.7-1.9.2-3.4.2-3.9.2-1,.4-3.5-2.4-5-7.8-2.9-10,3.5-19.1,3.2-20.9-6.4,5.6-10.1,13.6-10.1,22.1,0,7.2,2.7,14.2,7.5,19.6,0,0,.2,0,.3-.1,1.5-.3,4.7-4.4,12.8-4.6,5.6-.1,5.7.9,8.6.9,0,0,0,0,0,0,3,0,3-1,8.6-.9,8.1.2,11.3,4.3,12.8,4.6.1,0,.2,0,.3.1,4.8-5.4,7.5-12.3,7.5-19.6,0-8.5-3.7-16.6-10.1-22.1-.3,1.8,6.1,10.9,3.2,20.9-1.3,4.7-3.4,7.4-4.5,7.8h0s0,0,0,0c-.2,0-.3,0-.4,0-.6,0-2,0-3.8-.2-1.1-.1-2.4-.3-3.4-.7-1.1-.4-2-.8-2.6-1.6-2.8-2.2-3.2-9-3.9-15.6-.9-9.1-1.8-37.7-3.5-37.8,0,0,0,0,0,0,0,0,0,0,0,0,0,0,0,0,0,0ZM32.7,48.5c-1,0-3.7,4.8-4.2,7.7-.5,2.9-.1,5.3-.3,6.8.8,0,1.8,0,3.2-.2,1.1-.1,2.2-.3,3.2-.6,0,0,0,0,.1,0-1.3-.9-2.4-3.5-2.6-6.3-.3-4.7,1.4-6.8.8-7.2,0,0-.1,0-.2,0ZM57.3,48.5c0,0-.1,0-.2,0-.6.5,1.1,2.5.8,7.2-.2,2.8-1.3,5.4-2.6,6.3,0,0,.1,0,.2,0,1,.3,2.1.5,3.2.6,1.3.1,2.4.2,3.1.2-.1-1.4.3-3.9-.3-6.8-.5-2.9-3.2-7.6-4.2-7.7Z"/>
</svg>